<svg width="192" height="74" viewBox="0 0 192 74" fill="none" xmlns="http://www.w3.org/2000/svg">
<g id="logo 3" clip-path="url(#clip0_112_2768)">
<path id="Vector" d="M11.4153 28.2623C8.94494 25.6307 6.55487 23.1794 4.29856 20.6019C3.77239 20.0071 3.50484 18.9887 3.49592 18.1595C3.42458 12.8333 3.50484 7.49799 3.4335 2.17173C3.40674 0.477412 4.03101 -0.153449 5.66305 0.0358097C7.04537 0.198031 8.80225 -0.216535 9.73867 0.504449C11.8434 2.10864 13.9837 4.00122 15.259 6.26331C16.0884 7.7233 15.4106 10.0485 15.4106 12.0853C18.1664 11.8599 20.6278 11.4904 23.0981 11.4904C37.6081 11.4904 49.8973 23.7021 49.933 38.3651C49.9419 43.5111 50.156 48.8735 48.8717 53.7671C43.6903 73.45 20.164 80.4706 4.87824 67.2045C4.43233 66.817 3.89724 66.5286 3.32648 66.15C6.49244 63.1129 9.31059 60.4182 12.2714 57.5793C15.8209 60.8688 20.3067 62.3469 25.4882 61.5087C32.1679 60.4362 37.6437 54.3259 37.7775 47.5036C37.8578 43.5292 38.1967 39.4556 37.4921 35.5983C35.4498 24.378 22.349 19.7367 13.2614 26.7663C12.7976 27.1268 12.3517 27.5053 11.4331 28.2623H11.4153Z" fill="#10375C"/>
<path id="Vector_2" d="M135.985 39.2845C135.066 35.1569 132.756 33.039 128.868 32.8677C126.13 32.7416 123.374 32.7866 120.628 32.8677C120.003 32.8858 119.308 33.3274 118.79 33.76C118.3 34.1745 118.059 35.238 117.613 35.3011C116.311 35.4723 114.965 35.3191 113.636 35.1929C113.431 35.1749 113.19 34.6432 113.101 34.3097C112.271 31.0473 114.536 27.3883 117.899 27.2531C122.402 27.0728 126.977 27.0458 131.436 27.6046C137.198 28.3345 141.594 33.8501 141.675 39.7712C141.746 45.0253 141.701 50.2795 141.684 55.5337C141.684 56.7954 141.906 57.5434 143.253 58.3095C144.074 58.7781 144.1 60.9591 144.136 62.383C144.145 62.8246 143.003 63.2933 142.379 63.7349C142.326 63.7709 142.228 63.7619 142.165 63.7349C138.437 62.1577 134.727 63.9241 131 63.7799C127.218 63.6267 123.428 63.7529 119.638 63.7439C113.761 63.7349 110.853 60.6617 110.639 54.8127C110.443 49.5044 112.236 47.4316 117.069 45.6292C122.902 43.4482 128.886 41.6728 134.808 39.7261C135.155 39.6089 135.485 39.4647 135.967 39.2755L135.985 39.2845ZM136.234 44.9262C132.257 46.242 128.538 47.4677 124.819 48.7114C122.572 49.4594 120.315 50.1984 118.086 51.0005C115.669 51.8747 116.284 53.9926 116.338 55.786C116.391 57.5164 117.702 58.0571 119.12 58.0751C123.794 58.1382 128.476 58.1472 133.149 58.0751C135.013 58.0481 136.243 57.1108 136.243 55.029C136.243 51.8026 136.243 48.5852 136.243 44.9262H136.234Z" fill="#10375C"/>
<path id="Vector_3" d="M59.7252 22.2153C59.6717 21.5124 59.6004 20.9175 59.5914 20.3317C59.5201 16.6457 60.6349 15.8616 64.0951 17.1684C66.4852 18.0606 67.7248 19.8271 67.7694 22.4857C67.8051 24.6306 67.7694 26.7846 67.7694 29.2089C72.6655 26.5773 77.633 26.7395 82.5469 27.5055C88.1208 28.3797 92.2677 32.3902 92.8742 38.0499C93.3914 42.8625 93.4004 47.8283 92.9009 52.6408C92.2945 58.4898 88.0227 62.7076 82.0207 63.4466C78.4891 63.8792 74.6989 63.735 71.2565 62.8968C65.5488 61.4999 62.1777 56.4981 62.151 50.532C62.1242 42.2046 62.1242 33.8682 62.2045 25.5409C62.2223 23.6753 62.035 22.2243 59.7074 22.2153H59.7252ZM67.7784 45.3409C67.7784 47.2154 67.7159 49.09 67.7962 50.9555C67.9389 54.4974 70.2844 57.3543 73.7179 57.7688C76.1882 58.0662 78.7477 58.1023 81.227 57.8229C85.0529 57.3813 87.3627 54.7407 87.4876 50.8834C87.6035 47.2154 87.6124 43.5384 87.4876 39.8704C87.3449 35.923 84.8656 33.2914 80.9505 32.9309C78.7477 32.7327 76.5004 32.7237 74.2976 32.9309C70.4003 33.3004 67.8765 36.2024 67.7784 40.1588C67.7338 41.8802 67.7784 43.6015 67.7784 45.3319V45.3409Z" fill="#10375C"/>
<path id="Vector_4" d="M166.342 63.2935C165.879 63.5458 165.816 63.5999 165.745 63.6089C162.493 64.0114 160.864 62.5905 160.858 59.3461C160.858 51.3882 160.858 43.4213 160.858 35.4635C160.858 34.1747 161.045 32.8229 159.128 32.7147C158.833 32.6967 158.378 32.0027 158.352 31.5882C158.254 30.1913 158.316 28.7854 158.316 27.4425C161.981 26.7486 163.319 27.1541 165.932 29.6866C170.81 26.352 176.295 26.6494 181.726 27.5597C187.443 28.515 191.724 33.4718 191.893 39.3298C192.107 46.837 191.92 54.3442 191.982 61.8605C192 64.2488 190.368 63.69 189.048 63.7351C187.719 63.7801 186.364 64.0325 186.39 61.8335C186.48 55.0742 186.417 48.315 186.408 41.5558C186.399 35.5716 183.715 32.8409 177.865 32.8229C176.679 32.8229 175.484 32.8048 174.297 32.8229C169.419 32.904 166.387 35.9501 166.36 40.8799C166.325 47.567 166.351 54.2451 166.351 60.9322C166.351 61.7433 166.351 62.5544 166.351 63.2844L166.342 63.2935Z" fill="#10375C"/>
<path id="Vector_5" d="M97.8862 47.0534C97.8862 42.4752 97.8773 37.8969 97.8862 33.3187C97.904 29.2811 99.9106 27.2263 103.879 27.1542C104.396 27.1542 104.923 27.1542 105.44 27.1542C108.713 27.1362 108.606 27.1362 108.686 30.4708C108.731 32.3814 108.026 33.0933 106.225 32.823C103.888 32.4805 103.371 33.6251 103.398 35.806C103.505 44.3587 103.353 52.9114 103.496 61.4641C103.54 64.0145 102.122 63.7172 100.535 63.7712C98.8672 63.8253 97.7524 63.7262 97.8416 61.446C98.02 56.6515 97.8951 51.8479 97.8951 47.0444L97.8862 47.0534Z" fill="#10375C"/>
<path id="Vector_6" d="M154.33 47.2785C154.33 51.9289 154.196 56.5973 154.383 61.2386C154.472 63.5277 153.482 63.8071 151.627 63.7891C149.853 63.762 148.738 63.6809 148.774 61.3107C148.907 52.8301 148.827 44.3405 148.827 35.86C148.827 34.436 148.952 33.2554 147.061 32.5164C146.374 32.246 146.49 29.5964 146.499 28.0373C146.499 27.7399 147.721 27.2172 148.39 27.1901C152.198 27.073 154.312 29.2089 154.321 33.0842C154.338 37.8156 154.321 42.5471 154.321 47.2695L154.33 47.2785Z" fill="#10375C"/>
<path id="Vector_7" d="M0.249702 38.0317C3.8259 39.3115 7.09888 40.447 10.3451 41.6637C10.7375 41.8079 11.2369 42.3667 11.228 42.7271C11.2191 43.1147 10.7464 43.7005 10.3451 43.8357C7.13455 44.9442 3.89725 45.9716 0.240784 47.1612V38.0407L0.249702 38.0317Z" fill="#10375C"/>
<path id="Vector_8" d="M10.9159 37.0407C7.50914 35.6979 4.09347 34.3731 0.704548 32.9852C0.383493 32.85 0.0356827 32.3003 0.0267645 31.9398C-0.0356629 29.5064 9.90508e-06 27.0731 0.312147 24.4956C4.02212 28.5511 8.40096 31.8316 11.6383 36.1846C11.3975 36.473 11.1656 36.7613 10.9248 37.0497L10.9159 37.0407Z" fill="#10375C"/>
<path id="Vector_9" d="M11.6829 49.892C8.0799 53.56 4.46803 57.228 0.865078 60.896C0.615368 60.7879 0.365658 60.6707 0.10703 60.5625C0.10703 58.3005 0.0802758 56.0384 0.133785 53.7763C0.133785 53.4609 0.437004 52.9832 0.713468 52.8751C4.09347 51.4872 7.50022 50.1443 10.8981 48.7925C11.1567 49.162 11.4153 49.5225 11.6739 49.892H11.6829Z" fill="#10375C"/>
<path id="Vector_10" d="M148.881 22.6389C148.818 20.7734 150.058 19.3945 151.609 19.4846C153.206 19.5748 154.231 20.4309 154.303 22.1613C154.374 23.7925 153.152 25.1624 151.592 25.0452C150.022 24.9281 148.988 24.0809 148.872 22.6389H148.881Z" fill="#10375C"/>
</g>
<defs>
<clipPath id="clip0_112_2768">
<rect width="192" height="74" fill="white"/>
</clipPath>
</defs>
</svg>
