<svg width="68" height="68" viewBox="0 0 68 68" fill="none" xmlns="http://www.w3.org/2000/svg">
<rect width="68" height="68" rx="8" fill="#038C7F" fill-opacity="0.1"/>
<path d="M14.25 44.5C14.25 40.5625 19.5 40.5625 22.125 37.9375C23.4375 36.625 19.5 36.625 19.5 30.0625C19.5 25.6879 21.2496 23.5 24.75 23.5C28.2504 23.5 30 25.6879 30 30.0625C30 36.625 26.0625 36.625 27.375 37.9375C30 40.5625 35.25 40.5625 35.25 44.5M34.8857 40.5217C35.7471 40.2095 36.4531 39.9208 37.0037 39.6556C37.9674 39.1915 38.8971 38.6654 39.625 37.9375C40.9375 36.625 37 36.625 37 30.0625C37 25.6879 38.7496 23.5 42.25 23.5C45.7504 23.5 47.5 25.6879 47.5 30.0625C47.5 36.625 43.5625 36.625 44.875 37.9375C47.5 40.5625 52.75 40.5625 52.75 44.5" stroke="#038C7F" stroke-width="2" stroke-linecap="square"/>
<path d="M33.5 41C34.141 40.7836 34.6029 40.6242 34.8857 40.5217" stroke="#038C7F" stroke-width="2" stroke-linecap="round"/>
</svg>
