<svg width="120" height="46" viewBox="0 0 120 46" fill="none" xmlns="http://www.w3.org/2000/svg">
<g id="logo 2" opacity="0.78" clip-path="url(#clip0_101_3836)">
<path id="Vector" d="M7.13455 17.5686C5.59058 15.9328 4.09678 14.409 2.68659 12.8067C2.35773 12.437 2.19052 11.8039 2.18494 11.2885C2.14035 7.97761 2.19052 4.66108 2.14593 1.35016C2.12921 0.296934 2.51938 -0.0952228 3.5394 0.0224242C4.40335 0.123265 5.5014 -0.134439 6.08666 0.313741C7.40209 1.31094 8.73982 2.48741 9.53689 3.89357C10.0553 4.80114 9.63164 6.24651 9.63164 7.51262C11.354 7.37256 12.8924 7.14287 14.4363 7.14287C23.505 7.14287 31.1858 14.7339 31.2081 23.8488C31.2137 27.0476 31.3475 30.381 30.5448 33.423C27.3064 45.6583 12.6025 50.0224 3.0489 41.7759C2.7702 41.535 2.43577 41.3558 2.07904 41.1205C4.05777 39.2325 5.81911 37.5574 7.66964 35.7927C9.88804 37.8375 12.6917 38.7563 15.9301 38.2353C20.105 37.5686 23.5273 33.7703 23.6109 29.5294C23.6611 27.0588 23.8729 24.5266 23.4326 22.1289C22.1561 15.1541 13.9681 12.2689 8.28834 16.6387C7.9985 16.8628 7.7198 17.0981 7.14569 17.5686H7.13455Z" fill="white"/>
<path id="Vector_2" d="M84.9905 24.4202C84.4163 21.8543 82.9727 20.5378 80.5425 20.4314C78.8313 20.3529 77.109 20.3809 75.3922 20.4314C75.0021 20.4426 74.5673 20.7171 74.244 20.986C73.9375 21.2437 73.787 21.9048 73.5083 21.944C72.6945 22.0504 71.8528 21.9552 71.0223 21.8767C70.8941 21.8655 70.7436 21.535 70.6879 21.3277C70.1695 19.2997 71.5853 17.0252 73.6866 16.9412C76.5014 16.8291 79.3608 16.8123 82.1478 17.1597C85.7485 17.6134 88.4964 21.042 88.5466 24.7227C88.5912 27.9888 88.5633 31.2549 88.5522 34.521C88.5522 35.3053 88.6915 35.7703 89.5332 36.2465C90.046 36.5378 90.0627 37.8936 90.085 38.7787C90.0906 39.0532 89.3771 39.3445 88.9869 39.619C88.9535 39.6414 88.8922 39.6358 88.8532 39.619C86.5233 38.6386 84.2045 39.7367 81.8747 39.647C79.5113 39.5518 77.1424 39.6302 74.7735 39.6246C71.1004 39.619 69.2833 37.7087 69.1495 34.0728C69.0269 30.7731 70.1472 29.4846 73.1683 28.3641C76.8136 27.0084 80.5537 25.9048 84.2547 24.6947C84.4721 24.6218 84.6783 24.5322 84.9793 24.4146L84.9905 24.4202ZM85.1465 27.9272C82.6606 28.7451 80.3363 29.507 78.012 30.2801C76.6074 30.7451 75.1972 31.2045 73.8037 31.7031C72.2932 32.2465 72.6778 33.563 72.7112 34.6779C72.7446 35.7535 73.564 36.0896 74.4503 36.1008C77.371 36.14 80.2973 36.1457 83.218 36.1008C84.3829 36.084 85.1521 35.5014 85.1521 34.2073C85.1521 32.2017 85.1521 30.2017 85.1521 27.9272H85.1465Z" fill="white"/>
<path id="Vector_3" d="M37.3283 13.8095C37.2948 13.3726 37.2502 13.0028 37.2447 12.6387C37.2001 10.3473 37.8968 9.85995 40.0595 10.6723C41.5533 11.2269 42.328 12.3249 42.3559 13.9776C42.3782 15.3109 42.3559 16.6499 42.3559 18.1569C45.416 16.521 48.5206 16.6219 51.5918 17.098C55.0755 17.6415 57.6674 20.1345 58.0464 23.6527C58.3697 26.6443 58.3752 29.7311 58.0631 32.7227C57.6841 36.3585 55.0142 38.9804 51.263 39.4398C49.0557 39.7087 46.6868 39.6191 44.5353 39.098C40.968 38.2297 38.8611 35.1205 38.8444 31.4118C38.8277 26.2353 38.8276 21.0532 38.8778 15.8768C38.889 14.7171 38.7719 13.8151 37.3171 13.8095H37.3283ZM42.3615 28.1849C42.3615 29.3501 42.3225 30.5154 42.3726 31.6751C42.4618 33.8768 43.9277 35.6527 46.0737 35.9104C47.6177 36.0952 49.2174 36.1177 50.7669 35.944C53.1581 35.6695 54.6017 34.028 54.6798 31.6303C54.7522 29.3501 54.7578 27.0644 54.6798 24.7843C54.5906 22.3305 53.041 20.6947 50.5941 20.4706C49.2174 20.3473 47.8127 20.3417 46.436 20.4706C44.0002 20.7003 42.4228 22.5042 42.3615 24.9636C42.3336 26.0336 42.3615 27.1036 42.3615 28.1793V28.1849Z" fill="white"/>
<path id="Vector_4" d="M103.964 39.3445C103.674 39.5014 103.635 39.535 103.591 39.5406C101.558 39.7909 100.54 38.9076 100.536 36.8908C100.536 31.944 100.536 26.9916 100.536 22.0448C100.536 21.2437 100.653 20.4034 99.4547 20.3361C99.2708 20.3249 98.9865 19.8936 98.9698 19.6359C98.9085 18.7675 98.9475 17.8936 98.9475 17.0588C101.238 16.6275 102.074 16.8796 103.708 18.4538C106.756 16.381 110.184 16.5658 113.579 17.1317C117.152 17.7255 119.827 20.8067 119.933 24.4482C120.067 29.1149 119.95 33.7815 119.989 38.4538C120 39.9384 118.98 39.591 118.155 39.6191C117.325 39.6471 116.477 39.8039 116.494 38.437C116.55 34.2353 116.511 30.0336 116.505 25.8319C116.5 22.1121 114.822 20.4146 111.165 20.4034C110.424 20.4034 109.677 20.3922 108.936 20.4034C105.887 20.4538 103.992 22.3473 103.975 25.4118C103.953 29.5686 103.97 33.7199 103.97 37.8768C103.97 38.381 103.97 38.8852 103.97 39.3389L103.964 39.3445Z" fill="white"/>
<path id="Vector_5" d="M61.1789 29.2493C61.1789 26.4034 61.1733 23.5574 61.1789 20.7115C61.19 18.2017 62.4441 16.9244 64.9245 16.8796C65.2478 16.8796 65.5767 16.8796 65.9 16.8796C67.9456 16.8684 67.8787 16.8684 67.9288 18.9412C67.9567 20.1289 67.5164 20.5714 66.3905 20.4034C64.9301 20.1905 64.6068 20.902 64.6235 22.2577C64.6904 27.5742 64.5957 32.8908 64.6848 38.2073C64.7127 39.7927 63.8265 39.6079 62.8343 39.6415C61.792 39.6751 61.0953 39.6135 61.151 38.1961C61.2625 35.2157 61.1844 32.2297 61.1844 29.2437L61.1789 29.2493Z" fill="white"/>
<path id="Vector_6" d="M96.456 29.3893C96.456 32.2801 96.3723 35.1821 96.4894 38.0672C96.5451 39.4902 95.9264 39.6639 94.7671 39.6527C93.6579 39.6358 92.9611 39.5854 92.9834 38.112C93.067 32.8403 93.0169 27.563 93.0169 22.2913C93.0169 21.4062 93.0949 20.6723 91.9132 20.2129C91.4841 20.0448 91.5565 18.3978 91.5621 17.4286C91.5621 17.2437 92.3257 16.9188 92.7438 16.902C95.1238 16.8291 96.4448 18.1569 96.4504 20.5658C96.4615 23.507 96.4504 26.4482 96.4504 29.3837L96.456 29.3893Z" fill="white"/>
<path id="Vector_7" d="M0.156087 23.6414C2.39121 24.437 4.43682 25.1428 6.46572 25.8992C6.71097 25.9888 7.0231 26.3361 7.01753 26.5602C7.01196 26.8011 6.71654 27.1653 6.46572 27.2493C4.45912 27.9384 2.4358 28.577 0.150513 29.3165V23.6471L0.156087 23.6414Z" fill="white"/>
<path id="Vector_8" d="M6.82242 23.0252C4.6932 22.1905 2.5584 21.367 0.440327 20.5042C0.239668 20.4202 0.0222864 20.0784 0.0167126 19.8543C-0.0223046 18.3417 -9.06811e-06 16.8291 0.195077 15.2269C2.51381 17.7479 5.25058 19.7871 7.2739 22.493C7.12341 22.6723 6.97849 22.8515 6.82799 23.0308L6.82242 23.0252Z" fill="white"/>
<path id="Vector_9" d="M7.30176 31.014C5.04991 33.2941 2.79249 35.5742 0.540643 37.8543C0.384575 37.7871 0.228506 37.7143 0.0668635 37.6471C0.0668635 36.2409 0.0501419 34.8347 0.0835851 33.4286C0.0835851 33.2325 0.273097 32.9356 0.445887 32.8684C2.55839 32.0056 4.68761 31.1709 6.81125 30.3305C6.9729 30.5602 7.13454 30.7843 7.29618 31.014H7.30176Z" fill="white"/>
<path id="Vector_10" d="M93.0503 14.0728C93.0113 12.9132 93.7861 12.056 94.7559 12.112C95.7536 12.1681 96.3946 12.7003 96.4392 13.7759C96.4838 14.7899 95.7202 15.6414 94.7448 15.5686C93.7638 15.4958 93.1172 14.9692 93.0447 14.0728H93.0503Z" fill="white"/>
</g>
<defs>
<clipPath id="clip0_101_3836">
<rect width="120" height="46" fill="white"/>
</clipPath>
</defs>
</svg>
