<svg width="33" height="32" viewBox="0 0 33 32" fill="none" xmlns="http://www.w3.org/2000/svg">
<g id="pt">
<mask id="mask0_113_2849" style="mask-type:alpha" maskUnits="userSpaceOnUse" x="0" y="0" width="33" height="32">
<ellipse id="Ellipse 3" cx="16.2388" cy="16" rx="16.2388" ry="16" fill="#D9D9D9"/>
</mask>
<g mask="url(#mask0_113_2849)">
<g id="Group 5">
<path id="Vector" d="M-8.66071 0H40.8677V32H-8.66071V0Z" fill="#009B3A"/>
<path id="Vector_2" d="M16.1035 1.80585L35.8859 15.9719L16.1035 30.1287L-3.77539 15.9719L16.1035 1.80585Z" fill="#FEDF00"/>
<path id="Vector_3" d="M16.1033 23.5228C20.3903 23.5228 23.8656 20.1547 23.8656 16C23.8656 11.8453 20.3903 8.4772 16.1033 8.4772C11.8163 8.4772 8.34094 11.8453 8.34094 16C8.34094 20.1547 11.8163 23.5228 16.1033 23.5228Z" fill="white"/>
<path id="Vector_4" d="M12.1836 15.5041C10.8417 15.5041 9.53827 15.7006 8.31213 16.0655C8.37006 20.1731 11.8168 23.4854 16.0648 23.4854C18.6909 23.4854 21.0177 22.2129 22.4176 20.276C20.0136 17.3754 16.3158 15.5041 12.1836 15.5041ZM23.6727 17.4035C23.7596 16.9357 23.8175 16.4585 23.8175 15.9626C23.8175 11.8082 20.3418 8.43976 16.0552 8.43976C12.8595 8.43976 10.1176 10.3205 8.92038 12.9871C9.97273 12.7813 11.0541 12.669 12.1643 12.669C16.6827 12.6784 20.757 14.4936 23.6727 17.4035Z" fill="#002776"/>
</g>
</g>
</g>
</svg>
