<svg width="149" height="149" viewBox="0 0 149 149" fill="none" xmlns="http://www.w3.org/2000/svg">
<g id="Group 3674339" filter="url(#filter0_d_115_2869)">
<rect id="Rectangle 8385" x="32.5" y="19.5" width="84" height="84" rx="16.5" fill="url(#paint0_radial_115_2869)" stroke="url(#paint1_linear_115_2869)"/>
<g id="Group 3674338">
<path id="Vector" d="M66.1209 55.1355C71.5058 57.0424 76.4342 58.7344 81.3223 60.5473C81.9132 60.7621 82.6652 61.5947 82.6518 62.1319C82.6383 62.7093 81.9266 63.5822 81.3223 63.7836C76.4879 65.4354 71.6133 66.9663 66.1074 68.7389V55.1489L66.1209 55.1355Z" fill="white"/>
<path id="Vector_2" d="M82.1817 53.6583C77.0519 51.6574 71.9087 49.6833 66.8057 47.6153C66.3223 47.4139 65.7986 46.5947 65.7851 46.0575C65.6911 42.4318 65.7448 38.806 66.2148 34.9653C71.8012 41.0083 78.3948 45.8964 83.2695 52.3825C82.9069 52.8123 82.5577 53.242 82.1952 53.6717L82.1817 53.6583Z" fill="white"/>
<path id="Vector_3" d="M83.3367 72.8077C77.9114 78.2733 72.4727 83.7388 67.0475 89.2043C66.6715 89.0432 66.2955 88.8686 65.906 88.7075C65.906 85.3368 65.8658 81.9662 65.9463 78.5955C65.9463 78.1255 66.4029 77.4138 66.8192 77.2527C71.9087 75.1846 77.0385 73.1837 82.1549 71.1694C82.5444 71.72 82.9338 72.2571 83.3232 72.8077H83.3367Z" fill="white"/>
</g>
</g>
<defs>
<filter id="filter0_d_115_2869" x="0" y="0" width="149" height="149" filterUnits="userSpaceOnUse" color-interpolation-filters="sRGB">
<feFlood flood-opacity="0" result="BackgroundImageFix"/>
<feColorMatrix in="SourceAlpha" type="matrix" values="0 0 0 0 0 0 0 0 0 0 0 0 0 0 0 0 0 0 127 0" result="hardAlpha"/>
<feOffset dy="13"/>
<feGaussianBlur stdDeviation="16"/>
<feComposite in2="hardAlpha" operator="out"/>
<feColorMatrix type="matrix" values="0 0 0 0 0 0 0 0 0 0 0 0 0 0 0 0 0 0 0.24 0"/>
<feBlend mode="normal" in2="BackgroundImageFix" result="effect1_dropShadow_115_2869"/>
<feBlend mode="normal" in="SourceGraphic" in2="effect1_dropShadow_115_2869" result="shape"/>
</filter>
<radialGradient id="paint0_radial_115_2869" cx="0" cy="0" r="1" gradientUnits="userSpaceOnUse" gradientTransform="translate(51.3564 29.099) rotate(50.4638) scale(103.122 189.202)">
<stop stop-color="#038C7F"/>
<stop offset="1" stop-color="#09201E"/>
</radialGradient>
<linearGradient id="paint1_linear_115_2869" x1="74.5" y1="19" x2="74.5" y2="104" gradientUnits="userSpaceOnUse">
<stop stop-color="white"/>
<stop offset="1" stop-color="#4396BA" stop-opacity="0.58"/>
</linearGradient>
</defs>
</svg>
