<svg width="68" height="68" viewBox="0 0 68 68" fill="none" xmlns="http://www.w3.org/2000/svg">
<rect width="68" height="68" rx="8" fill="#038C7F" fill-opacity="0.1"/>
<path d="M33.5 37.5C38.3325 37.5 42.25 33.5825 42.25 28.75C42.25 23.9175 38.3325 20 33.5 20C28.6675 20 24.75 23.9175 24.75 28.75C24.75 33.5825 28.6675 37.5 33.5 37.5Z" stroke="#038C7F" stroke-width="2" stroke-linecap="square"/>
<path d="M28.25 46.25C33.0825 46.25 37 42.3325 37 37.5C37 32.6675 33.0825 28.75 28.25 28.75C23.4175 28.75 19.5 32.6675 19.5 37.5C19.5 42.3325 23.4175 46.25 28.25 46.25Z" stroke="#038C7F" stroke-width="2" stroke-linecap="square"/>
<path d="M38.75 46.25C43.5825 46.25 47.5 42.3325 47.5 37.5C47.5 32.6675 43.5825 28.75 38.75 28.75C33.9175 28.75 30 32.6675 30 37.5C30 42.3325 33.9175 46.25 38.75 46.25Z" stroke="#038C7F" stroke-width="2" stroke-linecap="square"/>
</svg>
